<svg id="Слой_1" data-name="Слой 1" xmlns="http://www.w3.org/2000/svg" viewBox="0 0 34 34"><defs><style>.cls-1{fill:#fff;}</style></defs><g id="surface20801327"><path class="cls-1" d="M25,8A17,17,0,1,0,42,25,17,17,0,0,0,25,8Zm0,1A16,16,0,1,1,9,25,16,16,0,0,1,25,9Zm7,9.3a3.44,3.44,0,0,0-1.44.27c-1,.36-13.88,5.82-14.62,6.14s-1.37.63-1.38,1.1.2.52.75.71,2,.64,2.83.87a3.07,3.07,0,0,0,2.25-.29c.55-.34,6.88-4.58,7.33-5s.82.11.45.47-4.71,4.59-5.29,5.18a1.08,1.08,0,0,0,.27,1.74c.53.34,4.36,2.9,4.94,3.32a3,3,0,0,0,1.7.6c.54,0,.82-.71,1.08-1.53s1.78-10.52,2-12.41a1,1,0,0,0-.48-1.11A1,1,0,0,0,32,18.3Z" transform="translate(-8 -8)"/></g></svg>