<svg id="Capa_1" data-name="Capa 1" xmlns="http://www.w3.org/2000/svg" viewBox="0 0 528.04 540"><defs><style>.cls-1{fill:#fff;}</style></defs><path class="cls-1" d="M-199.4,495.5a385.65,385.65,0,0,1-54-3.8c-53.4-6.4-102.5-21.1-141.8-42.5-57.9-31.6-89.8-74.7-89.8-121.5,0-32.4,15.6-63.6,45.1-90.3,25.4-23,61-42.3,102.7-55.7a17,17,0,0,1,5.4-.9,18.06,18.06,0,0,1,16.6,11.3,17.74,17.74,0,0,1-8.6,22.3c-62.8,31.5-92,67.4-92,113.1,0,34.8,21.5,67.7,60.5,92.7,29,18.6,65.7,31.6,106,37.4a497.71,497.71,0,0,0,57.6,3.4c57.5,0,113.6-10.2,159.2-28.8C-38,411.7-54.9,395.9-77,390.8a81.7,81.7,0,0,1-37.9-20.4,81.29,81.29,0,0,1-25.2-59.8L-442.5,8.8A31.27,31.27,0,0,1-443.8-34a31.29,31.29,0,0,1,23.3-10.4,31.69,31.69,0,0,1,19.4,6.7L-63.8,229.9c1.7-.1,3.5-.2,5.2-.2A81.47,81.47,0,0,1-4.5,250.3c.4.4,3.5,3.2,4.6,4.2a135.66,135.66,0,0,1,42.8,93.3,136.08,136.08,0,0,1-34.4,97c-3.6,4.1-14.9,13.7-22.6,16.9-52.1,21.5-114.2,33.4-175.3,33.7v.2h-10ZM-58.7,264.1c-1.2,0-2.5,0-3.8.1a47,47,0,0,0-32.8,17.1,47.22,47.22,0,0,0,3.9,64,46.11,46.11,0,0,0,21.9,11.8c28.4,6.5,51.4,24.7,63.6,49.1a102.08,102.08,0,0,0,14.3-57,101.81,101.81,0,0,0-32-69.8c-.6-.6-3.2-2.9-3.9-3.5A46.43,46.43,0,0,0-58.7,264.1Zm-391.4,54.6a66.53,66.53,0,0,0-.6,8.9,71.46,71.46,0,0,0,.8,10.3c-.3-3.5-.5-7-.5-10.5Q-450.4,323.05-450.1,318.7Zm319.9-46.8a79.49,79.49,0,0,1,8.4-12.4A83.33,83.33,0,0,1-103,242.7l-1.4-1.1A47.22,47.22,0,0,0-124,255.7a45.15,45.15,0,0,0-8,14.4Zm-27.6-27.6a69.29,69.29,0,0,1,7.3-10.4,82.63,82.63,0,0,1,16.9-15.5l-244.6-194Z" transform="translate(485 44.4)"/></svg>