<?xml version="1.0" encoding="utf-8"?>
<!-- Generator: Adobe Illustrator 26.0.3, SVG Export Plug-In . SVG Version: 6.00 Build 0)  -->
<svg version="1.1" id="Слой_1" xmlns="http://www.w3.org/2000/svg" xmlns:xlink="http://www.w3.org/1999/xlink" x="0px" y="0px"
	 viewBox="0 0 39.8 46.1" style="enable-background:new 0 0 39.8 46.1;" xml:space="preserve">
<style type="text/css">
	.st0{fill:#152022;}
	.st1{fill:#FFFFFF;}
</style>
<g>
	<circle class="st0" cx="71.5" cy="-136.8" r="50"/>
	<g id="Слой_2_00000024706629277848075960000013078820974430210447_">
		<g id="Capa_1">
			<path class="st1" d="M60.4-135.7c3.8,0,8.2,9,10.1,14.7c0,0,0,0,0,0.1c0,0,0,0.1,0.1,0.1c0,0.1,0.1,0.2,0.2,0.2l0.1,0.1l0.2,0.2
				l0.1,0.1c0.1,0.1,0.3,0.1,0.4,0.1c0.2,0,0.3,0,0.4-0.1l0.1-0.1c0.1,0,0.2-0.1,0.2-0.1l0.1-0.1c0.1-0.1,0.1-0.2,0.2-0.2l0.1-0.1
				c0,0,0,0,0-0.1c1.8-5.7,6.2-14.7,10-14.7c0.5,0,0.9-0.2,1.1-0.6c0.2-0.4,0.2-0.9,0-1.3l-5.4-8.6v-6.4c0-0.3-0.1-0.7-0.4-0.9v-11
				c0-0.7-0.6-1.3-1.3-1.3H66.8c-0.7,0-1.3,0.6-1.3,1.3v10.8c-0.4,0.2-0.6,0.6-0.6,1v6.1l0,0l-5.6,9c-0.4,0.6-0.2,1.4,0.4,1.7
				C59.9-135.8,60.1-135.7,60.4-135.7L60.4-135.7z M71.7-138.4c-1,0-1.7-0.8-1.7-1.7c0-0.9,0.8-1.7,1.7-1.7s1.7,0.8,1.7,1.7
				C73.5-139.2,72.7-138.4,71.7-138.4C71.7-138.4,71.7-138.4,71.7-138.4z M67.5-151.4H76v4.2h-8.5V-151.4z M66.7-144.7h9.8l4.3,6.8
				c-3.3,1.4-6.1,5.9-7.9,9.8v-8c2.3-0.6,3.6-3,3-5.2c-0.6-2.2-3-3.6-5.3-2.9c-2.3,0.6-3.6,3-3,5.2c0.4,1.3,1.4,2.4,2.7,2.8v8.1
				c-1.9-3.9-4.6-8.4-8-9.8L66.7-144.7z"/>
			<path class="st1" d="M47.6-109.9c0.9,0,1.7-0.5,2.2-1.3h17.1v2.1c0,0.7,0.6,1.3,1.3,1.3H75c0.7,0,1.3-0.6,1.3-1.3v-2.1h15
				c0.7,1.2,2.3,1.6,3.5,0.9c1.2-0.7,1.6-2.2,0.9-3.4c-0.7-1.2-2.3-1.6-3.5-0.9c-0.4,0.2-0.7,0.5-0.9,0.9h-15v-2.1
				c0-0.7-0.6-1.3-1.3-1.3h-6.8c-0.7,0-1.3,0.6-1.3,1.3v2.1H49.8c-0.7-1.2-2.3-1.6-3.5-0.9c-1.2,0.7-1.6,2.2-0.9,3.4
				C45.9-110.3,46.7-109.8,47.6-109.9L47.6-109.9z M69.5-114.5h4.2v4.2h-4.2V-114.5z"/>
		</g>
	</g>
</g>
</svg>
