<svg xmlns="http://www.w3.org/2000/svg" viewBox="0 0 39.85 46.09"><defs><style>.cls-1{fill:#fff;}</style></defs><g id="Слой_2" data-name="Слой 2"><g id="Capa_1" data-name="Capa 1"><path class="cls-1" d="M11.56,23.87c3,0,6.42,7.14,7.87,11.64,0,0,0,0,0,.05a.6.6,0,0,0,.06.11.59.59,0,0,0,.13.19l.09.09.19.13.11.05a.82.82,0,0,0,.35.08.85.85,0,0,0,.35-.08l.1-.05A.69.69,0,0,0,21,36l.09-.09a.8.8,0,0,0,.13-.19l.06-.11s0,0,0-.05c1.44-4.5,4.85-11.64,7.86-11.64a1,1,0,0,0,.88-.51,1,1,0,0,0,0-1l-4.25-6.86V10.43a1,1,0,0,0-.31-.72V1a1,1,0,0,0-1-1h-7.9a1,1,0,0,0-1,1V9.6a1,1,0,0,0-.46.82v4.81h0l-4.41,7.11a1,1,0,0,0,.85,1.53Zm8.89-2.11a1.36,1.36,0,1,1,1.36-1.36A1.36,1.36,0,0,1,20.45,21.76ZM17.12,11.43h6.67v3.33H17.12Zm-.59,5.33h7.7L27.6,22.2C25,23.29,22.83,26.86,21.38,30V23.61a3.36,3.36,0,1,0-2-.05V30c-1.45-3.09-3.61-6.67-6.23-7.76Z"/><path class="cls-1" d="M2,44.41a2,2,0,0,0,1.7-1H17.1v1.66a1,1,0,0,0,1,1h5.32a1,1,0,0,0,1-1V43.43H36.15a2,2,0,1,0,0-2H24.42V39.77a1,1,0,0,0-1-1H18.1a1,1,0,0,0-1,1v1.66H3.7a2,2,0,1,0-1.71,3ZM19.1,40.77h3.32v3.32H19.1Z"/></g></g></svg>