<?xml version="1.0" encoding="utf-8"?>
<!-- Generator: Adobe Illustrator 26.0.3, SVG Export Plug-In . SVG Version: 6.00 Build 0)  -->
<svg version="1.1" id="Capa_1" xmlns="http://www.w3.org/2000/svg" xmlns:xlink="http://www.w3.org/1999/xlink" x="0px" y="0px"
	 viewBox="0 0 82 82" style="enable-background:new 0 0 82 82;" xml:space="preserve">
<g>
	<path d="M40,82c22.6,0,41-18.4,41-41S62.6,0,40,0C17.4,0-1,18.4-1,41S17.4,82,40,82z M40,2c21.5,0,39,17.5,39,39S61.5,80,40,80
		C18.5,80,1,62.5,1,41S18.5,2,40,2z"/>
	<path d="M31.2,39.4c3,0,6.4,7.1,7.9,11.6c0,0,0,0,0,0c0,0,0,0.1,0.1,0.1c0,0.1,0.1,0.1,0.1,0.2c0,0,0.1,0.1,0.1,0.1
		c0.1,0.1,0.1,0.1,0.2,0.1c0,0,0.1,0,0.1,0.1c0.1,0,0.2,0.1,0.4,0.1s0.2,0,0.4-0.1c0,0,0.1,0,0.1-0.1c0.1,0,0.1-0.1,0.2-0.1
		c0,0,0.1-0.1,0.1-0.1c0.1-0.1,0.1-0.1,0.1-0.2c0,0,0-0.1,0.1-0.1c0,0,0,0,0,0c1.4-4.5,4.9-11.6,7.9-11.6c0.4,0,0.7-0.2,0.9-0.5
		c0.2-0.3,0.2-0.7,0-1L45.4,31v-5c0-0.3-0.1-0.5-0.3-0.7v-8.7c0-0.6-0.4-1-1-1h-7.9c-0.6,0-1,0.4-1,1v8.6c-0.3,0.2-0.5,0.5-0.5,0.8
		v4.8c0,0,0,0,0,0l-4.4,7.1c-0.2,0.3-0.2,0.7,0,1C30.5,39.2,30.8,39.4,31.2,39.4z M40.1,37.3c-0.7,0-1.4-0.6-1.4-1.4
		s0.6-1.4,1.4-1.4s1.4,0.6,1.4,1.4S40.8,37.3,40.1,37.3z M36.7,26.9h6.7v3.3h-6.7V26.9z M37.2,17.5h5.9v7.4h-5.9V17.5z M36.1,32.3
		h7.7l3.4,5.4c-2.6,1.1-4.8,4.7-6.2,7.8v-6.4c1.4-0.4,2.4-1.7,2.4-3.2c0-1.9-1.5-3.4-3.4-3.4c-1.9,0-3.4,1.5-3.4,3.4
		c0,1.5,1,2.7,2.3,3.2v6.4c-1.4-3.1-3.6-6.7-6.2-7.8L36.1,32.3z"/>
	<path d="M21.6,59.9c0.7,0,1.4-0.4,1.7-1h13.4v1.7c0,0.6,0.4,1,1,1l5.3,0c0.6,0,1-0.4,1-1v-1.7h11.7c0.3,0.6,1,1,1.7,1
		c1.1,0,2-0.9,2-2s-0.9-2-2-2c-0.7,0-1.4,0.4-1.7,1H44v-1.7c0-0.6-0.4-1-1-1l-5.3,0c-0.6,0-1,0.4-1,1v1.7H23.3c-0.3-0.6-1-1-1.7-1
		c-1.1,0-2,0.9-2,2C19.6,59,20.5,59.9,21.6,59.9z M57.5,57l0,1c0,0,0,0,0,0V57z M38.7,56.3l3.3,0v3.3l-3.3,0V56.3z M21.6,57l0,1
		c0,0,0,0,0,0V57z"/>
</g>
</svg>
