<?xml version="1.0" encoding="utf-8"?>
<!-- Generator: Adobe Illustrator 26.0.3, SVG Export Plug-In . SVG Version: 6.00 Build 0)  -->
<svg version="1.1" id="Capa_1" xmlns="http://www.w3.org/2000/svg" xmlns:xlink="http://www.w3.org/1999/xlink" x="0px" y="0px"
	 viewBox="0 0 433.3 433.3" style="enable-background:new 0 0 433.3 433.3;" xml:space="preserve">
<style type="text/css">
	.st0{fill:#FFFFFF;}
</style>
<path class="st0" d="M-199.4,495.5c-18.2,0-36.4-1.3-54-3.8c-53.4-6.4-102.5-21.1-141.8-42.5c-57.9-31.6-89.8-74.7-89.8-121.5
	c0-32.4,15.6-63.6,45.1-90.3c25.4-23,61-42.3,102.7-55.7c1.8-0.6,3.6-0.9,5.4-0.9c7.3,0,13.9,4.6,16.6,11.3
	c3.3,8.6-0.4,18.2-8.6,22.3c-62.8,31.5-92,67.4-92,113.1c0,34.8,21.5,67.7,60.5,92.7c29,18.6,65.7,31.6,106,37.4
	c18.8,2.2,38.2,3.4,57.6,3.4c57.5,0,113.6-10.2,159.2-28.8c-5.5-20.5-22.4-36.3-44.5-41.4c-14.2-3.3-27.3-10.3-37.9-20.4
	c-16.4-15.6-25.4-37.2-25.2-59.8L-442.5,8.8c-11.7-11.7-12.2-30.5-1.3-42.8c5.9-6.6,14.4-10.4,23.3-10.4c7,0,13.9,2.4,19.4,6.7
	l337.3,267.6c1.7-0.1,3.5-0.2,5.2-0.2c19.9,0,39.1,7.3,54.1,20.6c0.4,0.4,3.5,3.2,4.6,4.2c26,24.4,41.2,57.6,42.8,93.3
	c1.6,35.8-10.6,70.2-34.4,97c-3.6,4.1-14.9,13.7-22.6,16.9c-52.1,21.5-114.2,33.4-175.3,33.7v0.2H-199.4z M-58.7,264.1
	c-1.2,0-2.5,0-3.8,0.1c-12.9,1-24.5,7.1-32.8,17.1c-15.6,19-13.9,47.1,3.9,64c6.2,5.9,13.7,10,21.9,11.8
	c28.4,6.5,51.4,24.7,63.6,49.1c10.2-17.1,15.2-36.8,14.3-57c-1.2-26.7-12.6-51.5-32-69.8c-0.6-0.6-3.2-2.9-3.9-3.5
	C-36.2,268.2-47,264.1-58.7,264.1z M-450.1,318.7c-0.4,3-0.6,5.9-0.6,8.9c0,3.4,0.3,6.9,0.8,10.3c-0.3-3.5-0.5-7-0.5-10.5
	C-450.4,324.5-450.3,321.6-450.1,318.7z M-130.2,271.9c2.4-4.4,5.2-8.5,8.4-12.4c5.4-6.6,11.8-12.2,18.8-16.8l-1.4-1.1
	c-7.6,2.9-14.3,7.7-19.6,14.1c-3.5,4.2-6.2,9.1-8,14.4L-130.2,271.9z M-157.8,244.3c2.1-3.7,4.6-7.2,7.3-10.4
	c5-6,10.6-11.2,16.9-15.5L-378.2,24.4L-157.8,244.3z"/>
</svg>
